<svg xmlns="http://www.w3.org/2000/svg" viewBox="0 0 512 512" role="img" aria-labelledby="title desc">
  <title id="title">Lotion pencil calligraphy mark</title>
  <desc id="desc">A geometric pencil drawing an L with a Chinese calligraphy inspired horizontal stroke.</desc>
  <g fill="currentColor">
    <path d="M142 72 L242 56 L250 106 L150 122 Z"/>
    <path d="M154 134 L254 118 L280 280 L180 296 Z"/>
    <path fill-rule="evenodd" d="M180 296 L280 280 L228 414 Z M198 302 L260 292 L232 370 Z"/>
    <path d="M228 414 C250 398 274 398 304 404 C342 412 380 402 424 384 C412 400 412 414 420 426 C376 434 330 438 286 432 C256 430 238 424 228 414 Z"/>
  </g>
</svg>
